<svg preserveAspectRatio="none" overflow="visible" style="display: block;" width="24" height="24" viewBox="0 0 24 24" fill="none" xmlns="http://www.w3.org/2000/svg">
<g id="first encounter">
<path id="Vector" d="M14.75 22C14.5667 22 14.3958 21.9542 14.2375 21.8625C14.0792 21.7708 13.9583 21.65 13.875 21.5L13 19.95C12.9167 19.8 12.8542 19.6458 12.8125 19.4875C12.7708 19.3292 12.75 19.1583 12.75 18.975V11.5C12.75 11.15 12.8167 10.825 12.95 10.525C13.0833 10.225 13.3083 10.075 13.625 10.075C13.7583 10.075 13.8792 10.1083 13.9875 10.175C14.0958 10.2417 14.1833 10.3417 14.25 10.475L15.75 13.2V15.25C15.75 15.4667 15.8208 15.6458 15.9625 15.7875C16.1042 15.9292 16.2833 16 16.5 16C16.7167 16 16.8958 15.9292 17.0375 15.7875C17.1792 15.6458 17.25 15.4667 17.25 15.25V13.325C17.25 13.1583 17.2292 12.9917 17.1875 12.825C17.1458 12.6583 17.0833 12.5 17 12.35L13.175 5.375C12.925 4.90833 12.8 4.41667 12.8 3.9C12.8 3.38333 12.9333 2.9 13.2 2.45C13.4167 2.2 13.6833 2.06667 14 2.05C14.3167 2.03333 14.575 2.14167 14.775 2.375L20.575 9C20.7083 9.16667 20.8167 9.34583 20.9 9.5375C20.9833 9.72917 21.0333 9.93333 21.05 10.15L21.925 20.925C21.9583 21.2083 21.8708 21.4583 21.6625 21.675C21.4542 21.8917 21.2083 22 20.925 22H14.75ZM3.075 22C2.79167 22 2.54583 21.8917 2.3375 21.675C2.12917 21.4583 2.04167 21.2083 2.075 20.925L2.95 10.15C2.96667 9.93333 3.01667 9.72917 3.1 9.5375C3.18333 9.34583 3.29167 9.16667 3.425 9L9.225 2.4C9.425 2.16667 9.67917 2.05417 9.9875 2.0625C10.2958 2.07083 10.55 2.19167 10.75 2.425C11.0167 2.89167 11.1583 3.38333 11.175 3.9C11.1917 4.41667 11.075 4.90833 10.825 5.375L7 12.35C6.91667 12.5 6.85417 12.6583 6.8125 12.825C6.77083 12.9917 6.75 13.1583 6.75 13.325V15.25C6.75 15.4667 6.82083 15.6458 6.9625 15.7875C7.10417 15.9292 7.28333 16 7.5 16C7.71667 16 7.89583 15.9292 8.0375 15.7875C8.17917 15.6458 8.25 15.4667 8.25 15.25V13.2L9.75 10.475C9.81667 10.3417 9.90833 10.2417 10.025 10.175C10.1417 10.1083 10.2667 10.075 10.4 10.075C10.7 10.075 10.9167 10.225 11.05 10.525C11.1833 10.825 11.25 11.15 11.25 11.5V18.975C11.25 19.1583 11.2292 19.3292 11.1875 19.4875C11.1458 19.6458 11.0833 19.8 11 19.95L10.125 21.5C10.0417 21.65 9.92083 21.7708 9.7625 21.8625C9.60417 21.9542 9.43333 22 9.25 22H3.075Z" fill="#E3E3E3"/>
</g>
</svg>
