<svg preserveAspectRatio="none" overflow="visible" style="display: block;" width="83" height="83" viewBox="0 0 83 83" fill="none" xmlns="http://www.w3.org/2000/svg">
<g transform="translate(6 0)">
<path id="Vector" d="M26.1319 64.819C23.3051 63.2381 21.037 61.0643 19.3278 58.2976C18.9333 57.6389 18.9169 56.9802 19.2785 56.3214C19.64 55.6627 20.2153 55.3333 21.0042 55.3333H49.9958C50.719 55.3333 51.2778 55.6627 51.6722 56.3214C52.0667 56.9802 52.0667 57.6389 51.6722 58.2976C49.963 61.0643 47.6949 63.2381 44.8681 64.819C42.0412 66.4 38.9185 67.1905 35.5 67.1905C32.0815 67.1905 28.9588 66.4 26.1319 64.819ZM22.1382 47.972C21.185 47.0169 20.7083 45.8476 20.7083 44.4643C20.7083 43.081 21.185 41.9117 22.1382 40.9565C23.0914 40.0014 24.2583 39.5238 25.6389 39.5238C27.0194 39.5238 28.1863 40.0014 29.1396 40.9565C30.0928 41.9117 30.5694 43.081 30.5694 44.4643C30.5694 45.8476 30.0928 47.0169 29.1396 47.972C28.1863 48.9272 27.0194 49.4048 25.6389 49.4048C24.2583 49.4048 23.0914 48.9272 22.1382 47.972ZM41.8604 47.972C40.9072 47.0169 40.4306 45.8476 40.4306 44.4643C40.4306 43.081 40.9072 41.9117 41.8604 40.9565C42.8137 40.0014 43.9806 39.5238 45.3611 39.5238C46.7417 39.5238 47.9086 40.0014 48.8618 40.9565C49.815 41.9117 50.2917 43.081 50.2917 44.4643C50.2917 45.8476 49.815 47.0169 48.8618 47.972C47.9086 48.9272 46.7417 49.4048 45.3611 49.4048C43.9806 49.4048 42.8137 48.9272 41.8604 47.972ZM35.5 83C25.7046 83 17.372 79.5911 10.5021 72.7732C3.63218 65.9554 0.131481 57.6389 0 47.8238L7.9875 44.8595C7.92176 45.3206 7.88889 45.7488 7.88889 46.144V47.4286C7.88889 55.1357 10.5678 61.6736 15.9257 67.0423C21.2836 72.4109 27.8083 75.0952 35.5 75.0952C43.1917 75.0952 49.7164 72.4109 55.0743 67.0423C60.4322 61.6736 63.1111 55.1357 63.1111 47.4286C63.1111 46.3746 63.0618 45.3371 62.9632 44.3161C62.8646 43.295 62.6838 42.2905 62.4208 41.3024C58.4764 40.8413 54.7456 39.8367 51.2285 38.2887C47.7113 36.7407 44.4736 34.7151 41.5153 32.2119L62.5194 24.3071C65.2148 27.469 67.3021 31.0097 68.7812 34.9292C70.2604 38.8486 71 43.0151 71 47.4286C71 52.369 70.0632 56.9966 68.1896 61.3113C66.316 65.626 63.785 69.3808 60.5965 72.5756C57.4081 75.7704 53.6609 78.3065 49.3549 80.1839C45.0488 82.0613 40.4306 83 35.5 83ZM1.57778 41.006C1.11759 39.6885 0.739583 38.3381 0.44375 36.9548C0.147917 35.5714 0 34.1552 0 32.706C0 26.7115 1.67639 21.3429 5.02917 16.6C8.38194 11.8571 12.6222 8.16825 17.75 5.53333C17.6185 5.26984 17.5363 5.02282 17.5035 4.79226C17.4706 4.56171 17.4542 4.28175 17.4542 3.95238C17.4542 2.83254 17.8322 1.89385 18.5882 1.13631C19.3442 0.37877 20.281 0 21.3986 0C22.319 0 23.1079 0.263492 23.7653 0.790476C24.4227 1.31746 24.8829 1.97619 25.1458 2.76667C26.5921 2.4373 28.022 2.17381 29.4354 1.97619C30.8488 1.77857 32.3116 1.67976 33.8236 1.67976C38.2282 1.67976 42.4192 2.53611 46.3965 4.24881C50.3738 5.96151 53.8745 8.43175 56.8986 11.6595L65.2806 8.49762C66.3324 8.10238 67.335 8.13532 68.2882 8.59643C69.2414 9.05754 69.9153 9.81508 70.3097 10.869C70.7042 11.923 70.6877 12.9276 70.2604 13.8827C69.8331 14.8379 69.0935 15.5131 68.0417 15.9083L1.57778 41.006Z" fill="url(#paint0_linear_adjust_hat)"/>
</g>
<defs>
<linearGradient id="paint0_linear_adjust_hat" x1="35.5" y1="0" x2="35.5" y2="83" gradientUnits="userSpaceOnUse">
<stop stop-color="#47879A"/>
<stop offset="1" stop-color="#2E5F6D"/>
</linearGradient>
</defs>
</svg>
